<svg xmlns="http://www.w3.org/2000/svg" width="395" height="154" viewBox="0 0 395 154" fill="none"><path d="M112.96 11.0231L111.494 140.004L96.4999 138.5L98.9723 35.016L112.96 11.0231Z" fill="#E7BC47"></path><path d="M113.102 15.177L113.024 11.0417L99 35V39L113.102 15.177Z" fill="#BA9B47"></path><path d="M186.422 138.374L175.25 151.764L32.2158 151.761L39.5438 138.373L186.422 138.374Z" fill="#5134A2"></path><path d="M88.3868 0.211426L112.982 11.1721L39.5439 138.373L32.2159 151.761L0.890625 151.764L88.3868 0.211426Z" fill="#5E43AA"></path><path d="M32.2155 151.76L36.5208 151.757L42.1164 141.529L43.9381 138.364L39.5435 138.373L32.2155 151.76Z" fill="#422A87"></path><path d="M159.2 84.8429H150.503V107H138V52H150.503V74.2357H159.511L173.799 52H187.079L169.295 78.5571L187.622 107H173.334L159.2 84.8429Z" fill="#292929"></path><path d="M229.263 95.2143H204.025L199.21 107H186.319L210.548 52H222.973L247.279 107H234.078L229.263 95.2143ZM225.303 85.55L216.683 64.4929L208.063 85.55H225.303Z" fill="#292929"></path><path d="M293.304 62.3714H275.909V107H263.484V62.3714H246.167V52H293.304V62.3714Z" fill="#292929"></path><path d="M343.293 96.7857V107H301.203V52H342.283V62.2143H313.706V74.1571H338.944V84.0571H313.706V96.7857H343.293Z" fill="#292929"></path><path d="M395 62.3714H377.605V107H365.18V62.3714H347.863V52H395V62.3714Z" fill="#292929"></path></svg>