<svg xmlns="http://www.w3.org/2000/svg" width="371" height="50" viewBox="0 0 371 50" fill="none"><path d="M0.0654274 24.9185L0.163568 49.8368H17.9925H35.8215V42.9785V36.1203L30.5219 36.0223L25.1895 35.957V17.9949V0.0327148H12.5948H0L0.0654274 24.9185Z" fill="#212220"></path><path d="M38.3398 24.9185L38.438 49.8368H50.542H62.6461L62.7442 24.9185L62.8097 0.0327148H50.542H38.2744L38.3398 24.9185Z" fill="#212220"></path><path d="M65.8203 24.9185L65.9185 49.8368L83.682 49.9348L101.413 50.0001V44.1216V38.2431H96.015H90.6173V33.8342V29.4253L95.9496 29.36L101.249 29.262L101.347 24.2653L101.446 19.3012H96.015H90.6173V14.5657V9.83023H96.015H101.413V4.93148V0.0327148H83.5838H65.7549L65.8203 24.9185Z" fill="#212220"></path><path d="M103.768 24.9184L103.866 49.8367H124.966C144.234 49.8367 146.263 49.7714 148.193 49.2489C154.899 47.42 158.04 42.5212 157.614 34.6506C157.483 32.3645 157.254 31.3521 156.469 29.6865C155.521 27.629 153.721 25.4736 152.151 24.4938L151.399 24.0039L152.707 23.1221C156.24 20.8034 158.007 15.3821 156.895 10.2221C155.979 5.78053 153.362 2.48203 149.567 0.947093L147.702 0.19595L125.686 0.0979752L103.702 0L103.768 24.9184ZM133.799 10.712C135.467 12.5735 135.434 16.0026 133.701 17.6029C132.654 18.5826 131.411 18.9745 129.35 18.9745H127.583V14.2064V9.43827L130.233 9.56891C132.719 9.66688 132.915 9.7322 133.799 10.712ZM133.308 30.1437C135.434 31.1235 136.416 35.4997 134.911 37.4592C133.602 39.2227 132.621 39.68 130.004 39.8106L127.583 39.9412V34.9118C127.583 32.1359 127.681 29.7518 127.845 29.6212C128.172 29.2619 132.261 29.6538 133.308 30.1437Z" fill="#212220"></path><path d="M159.315 25.0164V50.0001L171.844 49.9348L184.341 49.8368L184.439 39.2881L184.504 28.7395L188.528 28.8375L192.519 28.9354L192.617 39.4514L192.683 50.0001H204.951H217.218V25.0164V0.0327148H204.951H192.683L192.617 9.40568L192.519 18.8113H188.594H184.668L184.57 9.40568L184.504 0.0327148H171.91H159.315V25.0164Z" fill="#212220"></path><path d="M220.555 24.9185L220.653 49.8368H238.319H255.984V44.1215V38.4063L250.684 38.3083L245.352 38.243V33.8341V29.4253H250.586H255.821V24.3633V19.3012H250.586H245.352V14.5657V9.83023L250.684 9.76492L255.984 9.66694L256.082 4.8335L256.18 0.0327148H238.319H220.49L220.555 24.9185Z" fill="#212220"></path><path d="M258.438 25.0164V50.0001H270.052H281.665V42.8806C281.698 34.6507 281.436 34.618 284.937 43.3051C286.278 46.5383 287.488 49.3796 287.652 49.6082C287.914 49.9021 293.115 50.0001 312.547 49.9348L337.115 49.8368L337.278 42.8153L337.441 35.7937L339.667 41.3456C340.91 44.4155 342.251 47.5507 342.611 48.3672L343.329 49.8368L356.547 49.9348C363.842 49.9674 369.894 49.9021 370.025 49.7715C370.156 49.6082 367.341 44.8401 363.743 39.1575C360.177 33.475 357.234 28.6742 357.234 28.5435C357.234 28.3802 358.215 27.8251 359.393 27.3352C361.879 26.2574 364.627 23.7754 365.707 21.6526C369.338 14.5331 366.655 5.29072 359.949 1.89425C356.351 0.0653732 356.089 0.0327148 334.203 0.0327148H314.052V23.8734C314.052 36.9694 313.954 47.714 313.823 47.714C313.561 47.714 302.144 29.6539 301.784 28.6742C301.621 28.3149 301.915 28.0863 302.831 27.7924C306.168 26.682 309.602 23.4815 310.812 20.3136C311.696 18.0275 311.991 13.7166 311.435 11.1693C310.257 5.91123 306.331 1.99222 300.803 0.52259C299.167 0.0980316 295.732 0.0327148 278.656 0.0327148H258.438V25.0164ZM287.03 9.96087C287.619 10.1895 288.47 10.908 288.895 11.4959C289.582 12.4429 289.68 12.9981 289.68 15.2516C289.68 17.6356 289.581 17.9949 288.73 19.1053C287.52 20.7055 286.147 21.2607 283.464 21.2607H281.338V15.3822V9.50365H283.628C284.904 9.50365 286.441 9.6996 287.03 9.96087ZM342.84 10.0915C346.144 11.8224 346.275 18.0928 343.069 20.4116C342.349 20.9341 341.531 21.1301 339.536 21.2281L336.951 21.326V15.4149V9.50365H339.339C341.008 9.50365 342.055 9.66694 342.84 10.0915Z" fill="#212220"></path></svg>