<svg xmlns="http://www.w3.org/2000/svg" width="152" height="40" viewBox="0 0 152 40" fill="none"><path d="M141.488 26.5806C141.494 26.663 141.497 26.748 141.497 26.833C141.497 26.8276 141.497 26.8232 141.497 26.8178C141.497 26.7372 141.492 26.6585 141.488 26.5806Z" fill="#253689"></path><path d="M36.57 36.2605C33.8593 38.8019 29.8477 39.3835 23.9388 39.3835H15.5363C3.77267 39.3835 0.0322266 36.6838 0.0322266 27.3674V22.2856H11.3085C11.3085 22.7625 11.2545 23.2386 11.2545 23.6618C11.2545 28.3205 12.4472 29.8014 17.1633 29.8014H22.5848C26.9216 29.8014 27.6802 28.214 27.6802 24.3491V0.477051H39.7141V28.1084C39.7141 31.4435 38.4673 34.4609 36.57 36.2605Z" fill="#212220"></path><path d="M83.6357 13.9749C83.6357 10.9056 81.6303 9.6349 77.2935 9.6349H67.6442C59.8372 9.6349 57.9399 10.6407 57.9399 17.2045V22.5503C57.9399 28.5852 60.5966 29.8022 67.6442 29.8022H74.6377C81.3051 29.8022 83.9618 29.115 83.9618 24.5092C83.9618 24.3499 83.9618 24.2443 83.9618 24.085H96.1588C96.2128 25.0917 96.2678 25.9911 96.2678 26.8913C96.2678 31.6546 95.13 34.8313 92.3111 36.843C89.3292 39.013 84.6122 39.4362 77.7268 39.4362H64.2821C58.048 39.4362 53.6571 39.1723 50.2419 36.5781C46.9348 34.0376 45.688 30.5441 45.688 25.3029V14.8224C45.688 3.28233 50.8383 0 64.2821 0H77.7259C84.6113 0 89.2733 0.317674 92.1472 2.4877C94.6948 4.39284 95.7795 7.56957 95.7795 12.1745C95.7795 12.8626 95.7795 13.6036 95.7255 14.3445H83.6357C83.6357 14.2407 83.6357 14.0814 83.6357 13.9749Z" fill="#212220"></path><path d="M101.464 38.9612V0.477051H136.973C145.81 0.477051 150.092 3.97056 150.092 11.2234C150.092 15.3522 148.25 17.8927 144.293 19.3755C149.28 20.1692 151.448 23.0274 151.448 28.5334C151.448 35.9437 147.545 38.9612 138.817 38.9612H101.464ZM137.731 12.2811C137.731 10.3759 136.485 9.10524 134.641 9.10524H113.5V15.4569H134.641C136.648 15.4578 137.731 14.3455 137.731 12.2811ZM139.032 26.6793C139.032 24.6158 137.731 23.2914 135.726 23.2914H113.5V30.2265H135.726C137.84 30.2265 139.032 28.9558 139.032 26.6793Z" fill="#212220"></path><path d="M16.2003 0.479492H0V16.2987H16.2003V0.479492Z" fill="#F8B004"></path><path fill-rule="evenodd" clip-rule="evenodd" d="M11.838 8.38638C11.838 8.38638 12.1046 8.37653 12.1797 8.37206C12.2557 8.36759 12.3977 8.35953 12.4838 8.52329C12.5058 8.56535 12.6405 8.96803 12.6579 9.01546C12.6744 9.06289 12.7138 9.28123 12.537 9.31971C12.5049 9.32687 12.1916 9.38593 12.1916 9.38593L11.838 8.38638ZM11.2361 6.53403C11.2361 6.53403 11.5815 6.55908 11.6667 6.56535C11.7519 6.57251 11.8114 6.61009 11.8453 6.68257C11.8664 6.72821 11.9965 7.09868 12.0111 7.13895C12.0258 7.17922 12.0917 7.40204 11.9003 7.40651C11.871 7.40741 11.5274 7.40651 11.5274 7.40651L11.2361 6.53403ZM10.0195 5.47363C10.0195 5.47363 11.4697 5.67676 11.6053 5.69823C12.2099 5.79219 12.4719 6.26826 12.5461 6.49108C12.5709 6.56445 12.7385 7.08168 12.7605 7.13895C12.9254 7.57474 12.5076 7.80025 12.5076 7.80025C12.5076 7.80025 12.9849 7.88526 13.1462 8.2602C13.1462 8.2602 13.4485 9.12284 13.4778 9.21054C13.5071 9.29823 13.7233 9.98727 12.9877 10.2396C12.8897 10.2736 11.7061 10.5815 11.7061 10.5815L10.0195 5.47363Z" fill="black"></path><path d="M4.15283 4.61475L6.5292 4.96284L6.91305 6.22638L6.3588 6.17985C6.3588 6.17985 7.72471 10.4528 7.77143 10.5852C7.94274 11.0667 8.04718 11.5651 7.29964 11.8058C7.20162 11.8371 6.5063 12.0331 6.4211 12.0528C5.98961 12.1512 5.43995 12.1539 5.22742 11.498L4.35895 8.85636L5.42621 8.78298C5.42621 8.78298 5.86686 10.1396 5.90167 10.2398C5.99878 10.5235 6.05924 10.6318 6.36247 10.5638C6.58508 10.5137 6.57592 10.426 6.5182 10.238C6.49347 10.1593 5.20818 6.09215 5.20818 6.09215L4.6008 6.04741L4.15283 4.61475Z" fill="black"></path><path d="M7.69607 5.11786C7.79959 5.13396 8.56362 5.25209 8.69279 5.27267C8.82196 5.29325 9.53286 5.40689 9.72157 6.04672C9.7683 6.20421 10.143 7.32994 10.143 7.32994L9.24062 7.32188C9.24062 7.32188 9.07297 6.77781 9.03725 6.68385C8.95022 6.45477 8.94472 6.39571 8.67355 6.35634C8.39964 6.32591 8.4143 6.43777 8.47476 6.62658C8.50591 6.72412 9.32674 9.37736 9.36338 9.49191C9.45957 9.79347 9.4843 9.91338 9.77379 9.8579C10.0248 9.80063 9.97717 9.66998 9.91304 9.44716C9.89105 9.372 9.63363 8.57736 9.63363 8.57736L10.5296 8.51204C10.5296 8.51204 10.9867 9.92144 11.0106 9.98766C11.0344 10.0539 11.2258 10.6248 10.6835 10.87C10.6139 10.9013 10.6139 10.9067 10.5415 10.93C10.4691 10.9532 9.74356 11.1519 9.67394 11.1698C9.60523 11.1886 8.91357 11.3953 8.68913 10.7295C8.66714 10.666 7.20596 5.98855 7.12809 5.76036C6.99709 5.372 7.13725 5.04 7.69607 5.11786Z" fill="black"></path><path fill-rule="evenodd" clip-rule="evenodd" d="M3.19259 3.8781C3.63873 3.94969 11.3862 5.1819 11.7307 5.23738C12.0751 5.29376 12.6532 5.3734 12.8959 6.07676C12.9427 6.21367 13.9943 9.28481 14.0365 9.41814C14.0786 9.55148 14.3846 10.2531 13.5207 10.5144C13.3925 10.5537 6.10854 12.773 5.93173 12.8249C5.75492 12.8768 5.06693 13.1586 4.78386 12.1877C4.78386 12.1877 2.55956 5.3045 2.45787 4.99398C2.37451 4.74163 2.31496 4.5385 2.30214 4.3819C2.25816 3.81546 2.61728 3.79756 2.91134 3.83604C3.02219 3.85125 3.12205 3.86736 3.19259 3.8781ZM2.99013 3.49331C3.18617 3.52195 11.6455 4.8857 11.8607 4.91971C12.0788 4.95461 12.9106 5.04141 13.2441 5.96937C13.3082 6.14745 14.3608 9.24007 14.4112 9.39398C14.5971 9.96579 14.5174 10.5627 13.7461 10.8141C13.4914 10.8973 6.23313 13.1479 6.14335 13.1756C5.94364 13.2383 4.8773 13.7 4.48979 12.4956C4.48979 12.4956 2.13999 5.28034 2.07036 5.06199C1.96226 4.72374 1.89355 4.43649 1.89355 4.22441C1.89355 3.28749 2.80233 3.47452 2.99013 3.49331Z" fill="black"></path></svg>